<svg id="kumo-logo" xmlns="http://www.w3.org/2000/svg" width="183.908" height="91.586" viewBox="0 0 183.908 91.586">
  <g id="c">
    <g id="Group_9893" data-name="Group 9893">
      <path id="Path_4831" data-name="Path 4831" d="M67.159,67.919V46.238L53.494,59.491,68.862,82.3H61.567L49.1,63.74l-7.011,6.8V82.3h-6.02V29.605h6.02V62.182l16.642-16.36H73.109v22.1c0,5.453,3.611,9.419,9.277,9.419,5.547,0,9.14-3.9,9.2-9.282V0H0V91.586H91.586V80.317a15.7,15.7,0,0,1-9.2,2.828c-8.569,0-15.226-6.02-15.226-15.226Z" fill="#d40e8c"/>
      <path id="Path_4832" data-name="Path 4832" d="M233.452,121.881h-6.019V98.3c0-4.745-3.117-8.286-7.932-8.286s-7.932,3.541-7.932,8.286v23.583h-6.02V98.3c0-4.745-3.116-8.286-7.932-8.286s-7.932,3.541-7.932,8.286v23.583h-6.02V98.51c0-7.932,5.736-14.023,13.952-14.023a12.106,12.106,0,0,1,10.906,6.02,12.3,12.3,0,0,1,10.978-6.02c8.285,0,13.951,6.091,13.951,14.023v23.37Z" transform="translate(-86.054 -39.585)" fill="#d40e8c"/>
      <path id="Path_4833" data-name="Path 4833" d="M313.7,103.751c0,10.481-7.932,19.051-18.342,19.051-10.341,0-18.343-8.569-18.343-19.051,0-10.623,8-19.263,18.343-19.263C305.767,84.488,313.7,93.128,313.7,103.751Zm-6.02,0c0-7.436-5.523-13.527-12.322-13.527-6.728,0-12.252,6.091-12.252,13.527,0,7.295,5.524,13.244,12.252,13.244,6.8,0,12.322-5.949,12.322-13.244Z" transform="translate(-129.791 -39.585)" fill="#d40e8c"/>
    </g>
  </g>
</svg>
